<svg id="그룹_2" data-name="그룹 2" xmlns="http://www.w3.org/2000/svg" xmlns:xlink="http://www.w3.org/1999/xlink" width="133.789" height="88.74" viewBox="0 0 133.789 88.74">
  <defs>
    <clipPath id="clip-path">
      <rect id="사각형_1" data-name="사각형 1" width="133.789" height="88.74" fill="none"/>
    </clipPath>
  </defs>
  <g id="그룹_1" data-name="그룹 1" clip-path="url(#clip-path)">
    <path id="패스_1" data-name="패스 1" d="M105.441,23.73c-7.569-2.983-15.213-2.665-17.152.828-1.957,3.521.893,11.858,6.273,18.78s12.984,6.692,17.179-.863c4.129-7.534,1.248-15.771-6.3-18.745" transform="translate(-9.871 -2.443)" fill="#ff9700"/>
    <path id="패스_2" data-name="패스 2" d="M63.6,23.7c6.715,4.587,14.237,5.973,16.9,3,2.689-3,1.761-11.755-1.948-19.7S67.383-2.4,61.618,4.032c-5.7,6.427-4.715,15.1,1.982,19.668" transform="translate(-6.519 0)" fill="#006ecd"/>
    <path id="패스_3" data-name="패스 3" d="M88.442,52.061C87.366,44,83.369,37.473,79.374,37.478c-4.029,0-9.926,6.549-13.356,14.617s.469,14.6,9.112,14.589c8.591-.058,14.386-6.583,13.312-14.624" transform="translate(-7.294 -4.22)" fill="#ef151e"/>
    <path id="패스_4" data-name="패스 4" d="M56.469,30.289a2.085,2.085,0,0,0-2.291,2.1v1.265h3.253s.109,10.734-.014,11.858A4.42,4.42,0,0,1,55,49.429c-1.736.828-1.771,1.612-1.881,2.308-.144.9.025,1.019.683.857,2.585-.634,5.336-1.67,6.727-4.226A10.167,10.167,0,0,0,61.584,43.2V33.654a2.188,2.188,0,0,0,2.372-2.1V30.289Z" transform="translate(-5.975 -3.41)" fill="#fff"/>
    <path id="패스_5" data-name="패스 5" d="M50.688,44.694a9.766,9.766,0,0,1-7.678,3.742,9.038,9.038,0,0,1-9.17-9.312,9.1,9.1,0,0,1,9.17-9.438,9.772,9.772,0,0,1,7.611,3.741,4.771,4.771,0,0,1-2.731,1.492,3.182,3.182,0,0,1-1.706-.65,5.391,5.391,0,0,0-3.175-.995,5.64,5.64,0,0,0-5.391,5.849A5.592,5.592,0,0,0,46.337,43.9a3.134,3.134,0,0,1,1.722-.618,3.87,3.87,0,0,1,2.63,1.413" transform="translate(-3.81 -3.343)" fill="#fff"/>
    <path id="패스_6" data-name="패스 6" d="M74.894,84.446V80.708a2,2,0,0,1,.43-1.369,1.574,1.574,0,0,1,1.251-.489h1.193V95.736a1.971,1.971,0,0,1-.439,1.381,1.584,1.584,0,0,1-1.223.478H74.894V92a24.232,24.232,0,0,1-2.762.362q-1.583.128-3.777.127H65.149v-11a2.073,2.073,0,0,1,.409-1.368,1.515,1.515,0,0,1,1.234-.489h1.194v11H70.53c.548,0,1.208-.034,1.986-.1s1.566-.157,2.378-.275V84.446Zm7.143,11.29a2.042,2.042,0,0,1-.422,1.381,1.52,1.52,0,0,1-1.205.478H79.159V80.708a1.966,1.966,0,0,1,.44-1.369,1.583,1.583,0,0,1,1.242-.489h1.2Z" transform="translate(-7.336 -8.878)" fill="#fff"/>
    <path id="패스_7" data-name="패스 7" d="M91.8,89.333h11.463v.922a.936.936,0,0,1-.14.54,1.138,1.138,0,0,1-.3.3.8.8,0,0,1-.341.14,1.893,1.893,0,0,1-.221.02H88.837V81.9a2.1,2.1,0,0,1,.721-1.6,2.494,2.494,0,0,1,1.743-.662h11.944v.9a1.029,1.029,0,0,1-.132.562.91.91,0,0,1-.31.3.811.811,0,0,1-.321.118,1.709,1.709,0,0,1-.221.02H91.8V84.5h11.3v.921a.976.976,0,0,1-.129.551.913.913,0,0,1-.314.291.788.788,0,0,1-.319.121,1.982,1.982,0,0,1-.218.02H91.8Z" transform="translate(-10.003 -8.966)" fill="#fff"/>
    <path id="패스_8" data-name="패스 8" d="M125.09,89.36a1.969,1.969,0,0,1-.439,1.379,1.578,1.578,0,0,1-1.222.481h-1.214v-.607h-3.991v-.9a1,1,0,0,1,.115-.508.708.708,0,0,1,.274-.275,1.2,1.2,0,0,1,.332-.127,1.522,1.522,0,0,1,.236-.029h3.033V87.754a27.856,27.856,0,0,1-2.907.48q-1.593.186-3.238.246v.861a2,2,0,0,1-.429,1.379,1.522,1.522,0,0,1-1.2.478h-1.253V88.5h-5.6v-.861a.988.988,0,0,1,.117-.509.825.825,0,0,1,.276-.291.772.772,0,0,1,.312-.148,1.366,1.366,0,0,1,.255-.03h6.066q1.741,0,3.787-.135c1.36-.092,2.631-.235,3.8-.432V80.652a2.062,2.062,0,0,1,.411-1.37,1.523,1.523,0,0,1,1.234-.49h1.23Zm-4.733-7.1a3.076,3.076,0,0,1-.443,1.6,4.35,4.35,0,0,1-1.183,1.291,5.8,5.8,0,0,1-1.772.88,7.535,7.535,0,0,1-4.294,0,5.86,5.86,0,0,1-1.762-.88,4.261,4.261,0,0,1-1.174-1.291,3.175,3.175,0,0,1,0-3.189,4.253,4.253,0,0,1,1.174-1.292,6.025,6.025,0,0,1,1.762-.889,7.278,7.278,0,0,1,4.294,0,5.962,5.962,0,0,1,1.772.889,4.343,4.343,0,0,1,1.183,1.292,3.047,3.047,0,0,1,.443,1.585m4.714,13.4a1.97,1.97,0,0,1-.44,1.381,1.577,1.577,0,0,1-1.223.478H122.2V93.567H110.611v-.881a1.016,1.016,0,0,1,.119-.528.841.841,0,0,1,.272-.294,1.122,1.122,0,0,1,.335-.128,1.459,1.459,0,0,1,.233-.028h13.5Zm-7.573-13.4a2.068,2.068,0,0,0-.783-1.614,2.8,2.8,0,0,0-1.9-.676,2.91,2.91,0,0,0-1.037.187,2.66,2.66,0,0,0-.841.5,2.237,2.237,0,0,0-.576.724,1.944,1.944,0,0,0-.207.88,2.045,2.045,0,0,0,.207.91,2.2,2.2,0,0,0,.576.733,2.515,2.515,0,0,0,.841.489,3,3,0,0,0,1.037.177,2.811,2.811,0,0,0,1.9-.674,2.089,2.089,0,0,0,.783-1.635" transform="translate(-12.115 -8.801)" fill="#fff"/>
    <path id="패스_9" data-name="패스 9" d="M10.552,86.5c2.545-.482,4.437-2.278,4.437-4.417,0-2.514-2.6-4.551-5.8-4.551s-5.811,2.037-5.811,4.551c0,2.14,1.888,3.935,4.439,4.417v.731H.96A.905.905,0,0,0,0,88.2v.892H17.4a.908.908,0,0,0,.957-.969v-.889H10.552ZM6.246,82.081a2.884,2.884,0,0,1,2.935-2.83,2.83,2.83,0,1,1,0,5.655,2.88,2.88,0,0,1-2.935-2.826" transform="translate(0 -8.73)" fill="#fff"/>
    <path id="패스_10" data-name="패스 10" d="M43,96.183v.889H60.67a.905.905,0,0,0,.961-.965v-.889H43.96a.9.9,0,0,0-.962.965" transform="translate(-4.841 -10.721)" fill="#fff"/>
    <path id="패스_11" data-name="패스 11" d="M59.59,88.28V79.588H58.368c-1.068,0-1.651.663-1.651,1.862v1.63h-8.21V79.588H47.285c-1.068,0-1.66.663-1.66,1.862v9.021H57.18a2.308,2.308,0,0,0,2.41-2.191m-2.873.331H48.5V84.939h8.214Z" transform="translate(-5.137 -8.961)" fill="#fff"/>
    <path id="패스_12" data-name="패스 12" d="M5.305,96.266l9.094,0a1.806,1.806,0,0,0,1.9-1.691V91.626H3.388a.905.905,0,0,0-.958.967v.891H13.422v.924l-9.332,0c-1.072,0-1.66.661-1.66,1.861v2.784h13.1a.9.9,0,0,0,.958-.966V97.2H5.305Z" transform="translate(-0.274 -10.317)" fill="#fff"/>
    <path id="패스_13" data-name="패스 13" d="M35.793,80.757v9.5a28.017,28.017,0,0,1-6.329.8H25.994l0-4.144h5.185c1.071,0,1.656-.662,1.656-1.86V79.594H24.084a.905.905,0,0,0-.961.965v.893h6.839v3.6l-5.185,0c-1.073,0-1.66.66-1.654,1.86v6l4.15,0a25.633,25.633,0,0,0,8.52-1.109l0,5.817h1.226c1.068,0,1.654-.661,1.654-1.861l0-16.866H37.451c-1.068,0-1.658.661-1.658,1.86" transform="translate(-2.604 -8.884)" fill="#fff"/>
    <path id="패스_14" data-name="패스 14" d="M75.615,87.057H71.544V86.2a1.026,1.026,0,0,1,.116-.54.849.849,0,0,1,.276-.282.727.727,0,0,1,.313-.117,2.052,2.052,0,0,1,.252-.02h3.113Z" transform="translate(-8.056 -9.597)" fill="#fff"/>
    <path id="패스_15" data-name="패스 15" d="M130.738,94.885a.906.906,0,0,0-.963.965v.892h17.668a.906.906,0,0,0,.958-.965v-.891Z" transform="translate(-14.612 -10.684)" fill="#fff"/>
    <path id="패스_16" data-name="패스 16" d="M140.831,79.285v1.836c0,1.115-.022,5.291,6.916,7.5l-.758.906a1.381,1.381,0,0,1-1.455.4,12.033,12.033,0,0,1-6.263-4.471A12.04,12.04,0,0,1,133,89.93a1.384,1.384,0,0,1-1.454-.4l-.754-.906c6.539-2.081,6.882-5.912,6.907-7.272v-.2c0-1.2.588-1.862,1.659-1.862Z" transform="translate(-14.727 -8.927)" fill="#fff"/>
    <path id="패스_17" data-name="패스 17" d="M87.577,94.885a.906.906,0,0,0-.963.965v.892h17.668a.906.906,0,0,0,.958-.965v-.891Z" transform="translate(-9.752 -10.684)" fill="#fff"/>
  </g>
</svg>
