<svg xmlns="http://www.w3.org/2000/svg" width="24" height="24" viewBox="0 0 24 24">
  <g id="그룹_50" data-name="그룹 50" transform="translate(-13.59 -203.59)">
    <rect id="사각형_27" data-name="사각형 27" width="24" height="24" transform="translate(13.59 203.59)" fill="none" opacity="0.3"/>
    <path id="apple-imac2021" d="M2,13.34V2.5A.5.5,0,0,1,2.5,2H18.3a.5.5,0,0,1,.5.5V13.34M2,13.34v1.6a.5.5,0,0,0,.5.5H18.3a.5.5,0,0,0,.5-.5v-1.6M2,13.34H18.8M7.88,18.8H9.14m0,0V15.44m0,3.36h2.52m0,0h1.26m-1.26,0V15.44" transform="translate(15.19 205.79)" fill="none" stroke="#fff" stroke-linecap="round" stroke-linejoin="round" stroke-width="1.5"/>
  </g>
</svg>
