<svg xmlns="http://www.w3.org/2000/svg" width="24" height="24" viewBox="0 0 24 24">
  <g id="그룹_49" data-name="그룹 49" transform="translate(-13.59 -203.59)">
    <rect id="사각형_27" data-name="사각형 27" width="24" height="24" transform="translate(13.59 203.59)" fill="none" opacity="0.3"/>
    <g id="archive" transform="translate(17.213 207.213)">
      <path id="패스_72" data-name="패스 72" d="M7,6h9.026" transform="translate(-3.06 -2.619)" fill="none" stroke="#bbb" stroke-linecap="round" stroke-linejoin="round" stroke-width="1.5"/>
      <path id="패스_73" data-name="패스 73" d="M7,9h9.026" transform="translate(-3.06 -3.083)" fill="none" stroke="#bbb" stroke-linecap="round" stroke-linejoin="round" stroke-width="1.5"/>
      <path id="패스_74" data-name="패스 74" d="M9,17h5.416" transform="translate(-3.255 -4.321)" fill="none" stroke="#bbb" stroke-linecap="round" stroke-linejoin="round" stroke-width="1.5"/>
      <path id="패스_75" data-name="패스 75" d="M2.845,10.453H2.507A.507.507,0,0,0,2,10.96V18.4a.507.507,0,0,0,.507.507H18.4a.507.507,0,0,0,.507-.507V10.96a.507.507,0,0,0-.507-.507h-.338m-15.215,0V2.507A.507.507,0,0,1,3.352,2h14.2a.507.507,0,0,1,.507.507v7.946m-15.215,0H18.061" transform="translate(-2 -2)" fill="none" stroke="#bbb" stroke-width="1.5"/>
    </g>
  </g>
</svg>
