<svg xmlns="http://www.w3.org/2000/svg" width="24" height="24" viewBox="0 0 24 24">
  <g id="그룹_48" data-name="그룹 48" transform="translate(-13.59 -203.59)">
    <rect id="사각형_27" data-name="사각형 27" width="24" height="24" transform="translate(13.59 203.59)" fill="none" opacity="0.3"/>
    <g id="settings" transform="translate(17.19 207.19)">
      <path id="패스_76" data-name="패스 76" d="M11.7,14.394A2.7,2.7,0,1,0,9,11.7,2.7,2.7,0,0,0,11.7,14.394Z" transform="translate(-3.297 -3.297)" fill="none" stroke="#bbb" stroke-linecap="round" stroke-linejoin="round" stroke-width="1.5"/>
      <path id="패스_77" data-name="패스 77" d="M16.8,9.052l-.922-2.227L17.12,5.36,15.44,3.68,13.982,4.926l-2.274-.935L11.186,2H9.544L9.013,4.017l-2.222.936L5.36,3.68,3.68,5.36,4.9,6.863,3.993,9.095,2,9.56v1.68l2.017.551.936,2.221L3.68,15.44l1.68,1.68,1.5-1.226,2.189.9L9.56,18.8h1.68l.508-2,2.227-.922c.371.265,1.466,1.247,1.466,1.247l1.68-1.68L15.873,13.97l.922-2.227,2-.521V9.56Z" transform="translate(-2 -2)" fill="none" stroke="#bbb" stroke-linecap="round" stroke-linejoin="round" stroke-width="1.5"/>
    </g>
  </g>
</svg>
