<svg xmlns="http://www.w3.org/2000/svg" width="24" height="24" viewBox="0 0 24 24">
  <g id="그룹_39" data-name="그룹 39" transform="translate(-13.822 -203.822)">
    <rect id="사각형_27" data-name="사각형 27" width="24" height="24" transform="translate(13.822 203.822)" fill="none" opacity="0.3"/>
    <g id="stats-up-square" transform="translate(17.202 207.202)">
      <path id="패스_62" data-name="패스 62" d="M16,15.331V8" transform="translate(-3.767 -3.196)" fill="none" stroke="#bbb" stroke-linecap="round" stroke-linejoin="round" stroke-width="1.5"/>
      <path id="패스_63" data-name="패스 63" d="M12,15.582V11" transform="translate(-3.531 -3.396)" fill="none" stroke="#bbb" stroke-linecap="round" stroke-linejoin="round" stroke-width="1.5"/>
      <path id="패스_64" data-name="패스 64" d="M8,15.749V13" transform="translate(-3.295 -3.54)" fill="none" stroke="#bbb" stroke-linecap="round" stroke-linejoin="round" stroke-width="1.5"/>
      <path id="패스_65" data-name="패스 65" d="M3,19.374V3.565A.565.565,0,0,1,3.565,3H19.374a.565.565,0,0,1,.565.565V19.374a.565.565,0,0,1-.565.565H3.565A.565.565,0,0,1,3,19.374Z" transform="translate(-3 -3)" fill="none" stroke="#bbb" stroke-width="1.5"/>
    </g>
  </g>
</svg>
