<svg xmlns="http://www.w3.org/2000/svg" xmlns:xlink="http://www.w3.org/1999/xlink" width="221.472" height="65.194" viewBox="0 0 221.472 65.194">
  <defs>
    <clipPath id="clip-path">
      <rect id="사각형_19" data-name="사각형 19" width="221.472" height="65.194" fill="none"/>
    </clipPath>
  </defs>
  <g id="그룹_8" data-name="그룹 8" clip-path="url(#clip-path)">
    <path id="패스_20" data-name="패스 20" d="M76.667,25.548c-7.9-3.113-15.877-2.782-17.9.865-2.042,3.675.932,12.376,6.547,19.6s13.551,6.984,17.93-.9c4.309-7.863,1.3-16.46-6.576-19.563" transform="translate(-8.264 -3.331)" fill="#ff9700"/>
    <path id="패스_21" data-name="패스 21" d="M31.925,24.735c7.008,4.787,14.859,6.234,17.64,3.129,2.806-3.129,1.837-12.27-2.033-20.557s-11.659-9.813-17.677-3.1c-5.944,6.708-4.92,15.755,2.07,20.527" transform="translate(-3.693 0)" fill="#006ecd"/>
    <path id="패스_22" data-name="패스 22" d="M58.1,55.684c-1.123-8.416-5.294-15.225-9.463-15.219-4.2,0-10.36,6.834-13.94,15.255s.491,15.236,9.511,15.227c8.966-.061,15.013-6.87,13.893-15.263" transform="translate(-4.75 -5.754)" fill="#ef151e"/>
    <path id="패스_23" data-name="패스 23" d="M24.31,32.7A2.176,2.176,0,0,0,21.919,34.9v1.32h3.4s.113,11.2-.015,12.377a4.613,4.613,0,0,1-2.525,4.086c-1.812.864-1.849,1.682-1.964,2.409-.149.944.027,1.064.714.895,2.7-.661,5.57-1.743,7.022-4.411a10.616,10.616,0,0,0,1.1-5.4v-9.96a2.283,2.283,0,0,0,2.475-2.193V32.7Z" transform="translate(-2.952 -4.65)" fill="#fff"/>
    <path id="패스_24" data-name="패스 24" d="M17.583,47.716A10.192,10.192,0,0,1,9.57,51.622,9.433,9.433,0,0,1,0,41.9a9.5,9.5,0,0,1,9.57-9.849,10.2,10.2,0,0,1,7.944,3.9s-1.454,1.557-2.851,1.557a3.316,3.316,0,0,1-1.779-.678A5.633,5.633,0,0,0,9.57,35.8a5.886,5.886,0,0,0-5.626,6.1,5.836,5.836,0,0,0,9.1,4.984,3.272,3.272,0,0,1,1.8-.645,4.042,4.042,0,0,1,2.745,1.475" transform="translate(0 -4.558)" fill="#fff"/>
    <path id="패스_25" data-name="패스 25" d="M175.913,37.889v-3.9a2.084,2.084,0,0,1,.449-1.43,1.642,1.642,0,0,1,1.306-.51h1.245V49.673a2.056,2.056,0,0,1-.459,1.441,1.648,1.648,0,0,1-1.276.5h-1.266V45.774a25.727,25.727,0,0,1-2.881.378q-1.652.131-3.943.131h-3.347V34.8a2.161,2.161,0,0,1,.427-1.427,1.586,1.586,0,0,1,1.288-.51H168.7V44.342h2.655c.572,0,1.261-.034,2.073-.1s1.635-.163,2.482-.287V37.889Zm7.455,11.784a2.129,2.129,0,0,1-.44,1.441,1.581,1.581,0,0,1-1.258.5h-1.306V33.989a2.053,2.053,0,0,1,.46-1.43,1.651,1.651,0,0,1,1.3-.51h1.247Z" transform="translate(-23.566 -4.557)" fill="#fff"/>
    <path id="패스_26" data-name="패스 26" d="M194.413,43.018h11.965v.962a.976.976,0,0,1-.148.564,1.166,1.166,0,0,1-.314.313.836.836,0,0,1-.357.146,1.88,1.88,0,0,1-.231.022h-14.01V35.259a2.187,2.187,0,0,1,.753-1.674,2.6,2.6,0,0,1,1.819-.691h12.465v.941a1.071,1.071,0,0,1-.136.586.949.949,0,0,1-.323.315.838.838,0,0,1-.336.124,1.677,1.677,0,0,1-.231.021H194.413v3.095h11.8v.962a1.029,1.029,0,0,1-.135.576.957.957,0,0,1-.328.3.838.838,0,0,1-.332.125,2.173,2.173,0,0,1-.229.021H194.413Z" transform="translate(-27.203 -4.677)" fill="#fff"/>
    <path id="패스_27" data-name="패스 27" d="M229.831,42.994a2.053,2.053,0,0,1-.459,1.439,1.648,1.648,0,0,1-1.276.5H226.83V44.3h-4.166V43.36a1.03,1.03,0,0,1,.121-.53.724.724,0,0,1,.287-.287,1.237,1.237,0,0,1,.346-.132,1.562,1.562,0,0,1,.247-.031h3.165V41.317a29.218,29.218,0,0,1-3.034.5q-1.664.193-3.38.256v.9a2.088,2.088,0,0,1-.449,1.439,1.589,1.589,0,0,1-1.247.5h-1.308V42.094h-5.839v-.9a1.019,1.019,0,0,1,.123-.532.841.841,0,0,1,.287-.3.783.783,0,0,1,.326-.155,1.5,1.5,0,0,1,.266-.032h6.331q1.818,0,3.954-.141c1.42-.1,2.746-.245,3.971-.45V33.905a2.15,2.15,0,0,1,.428-1.43,1.591,1.591,0,0,1,1.288-.511h1.284Zm-4.94-7.414a3.206,3.206,0,0,1-.462,1.674,4.539,4.539,0,0,1-1.234,1.348,6.045,6.045,0,0,1-1.85.919,7.863,7.863,0,0,1-4.481,0,6.1,6.1,0,0,1-1.839-.919,4.431,4.431,0,0,1-1.226-1.348,3.283,3.283,0,0,1-.448-1.674,3.248,3.248,0,0,1,.448-1.654,4.447,4.447,0,0,1,1.226-1.349,6.3,6.3,0,0,1,1.839-.927,7.6,7.6,0,0,1,4.481,0,6.239,6.239,0,0,1,1.85.927,4.555,4.555,0,0,1,1.234,1.349,3.172,3.172,0,0,1,.462,1.654m4.92,13.989a2.054,2.054,0,0,1-.46,1.441,1.647,1.647,0,0,1-1.276.5h-1.266V47.385H214.719v-.92a1.064,1.064,0,0,1,.124-.552.872.872,0,0,1,.284-.306,1.144,1.144,0,0,1,.349-.133,1.527,1.527,0,0,1,.244-.031h14.091Zm-7.9-13.989a2.159,2.159,0,0,0-.817-1.685,2.925,2.925,0,0,0-1.981-.705,3.036,3.036,0,0,0-1.083.195,2.772,2.772,0,0,0-.878.521,2.324,2.324,0,0,0-.6.756,2.018,2.018,0,0,0-.216.919,2.129,2.129,0,0,0,.216.95,2.3,2.3,0,0,0,.6.765,2.644,2.644,0,0,0,.878.51,3.148,3.148,0,0,0,1.083.184,2.933,2.933,0,0,0,1.981-.7,2.182,2.182,0,0,0,.817-1.706" transform="translate(-30.083 -4.452)" fill="#fff"/>
    <path id="패스_28" data-name="패스 28" d="M106.414,39.986c2.657-.5,4.63-2.377,4.63-4.611,0-2.624-2.712-4.751-6.058-4.751s-6.065,2.127-6.065,4.751c0,2.234,1.971,4.106,4.633,4.611v.763H96.4a.944.944,0,0,0-1,1.009v.93h18.165a.947.947,0,0,0,1-1.011V40.75h-8.15Zm-4.495-4.612a3.065,3.065,0,1,1,3.063,2.949,3.01,3.01,0,0,1-3.063-2.949" transform="translate(-13.565 -4.355)" fill="#fff"/>
    <path id="패스_29" data-name="패스 29" d="M141.826,50.729v.928H160.27a.945.945,0,0,0,1-1.007v-.929H142.831a.944.944,0,0,0-1,1.008" transform="translate(-20.166 -7.07)" fill="#fff"/>
    <path id="패스_30" data-name="패스 30" d="M159.237,41.918V32.846h-1.275c-1.114,0-1.724.692-1.724,1.943v1.7H147.67V32.846h-1.275c-1.114,0-1.732.692-1.732,1.943V44.2h12.059a2.408,2.408,0,0,0,2.515-2.286m-3,.346h-8.572V38.431h8.572Z" transform="translate(-20.569 -4.67)" fill="#fff"/>
    <path id="패스_31" data-name="패스 31" d="M101.026,50.686l9.492,0a1.886,1.886,0,0,0,1.984-1.766V45.843H99.024a.945.945,0,0,0-1,1.01v.93H109.5v.964l-9.74,0c-1.119,0-1.734.691-1.734,1.942V53.6h13.668a.941.941,0,0,0,1-1.01v-.926H101.026Z" transform="translate(-13.938 -6.518)" fill="#fff"/>
    <path id="패스_32" data-name="패스 32" d="M133.591,34.041v9.916a29.231,29.231,0,0,1-6.605.83l-3.623,0,0-4.326h5.412c1.118,0,1.728-.691,1.728-1.94v-5.7H121.37a.946.946,0,0,0-1,1.008v.932H127.5v3.758l-5.412,0c-1.119,0-1.732.689-1.726,1.94V46.73l4.332,0a26.72,26.72,0,0,0,8.892-1.158l0,6.072h1.28c1.113,0,1.727-.691,1.727-1.942l0-17.6h-1.276c-1.115,0-1.73.691-1.73,1.941" transform="translate(-17.115 -4.564)" fill="#fff"/>
    <path id="패스_33" data-name="패스 33" d="M176.895,40.844h-4.249v-.9a1.083,1.083,0,0,1,.121-.564.913.913,0,0,1,.288-.3.771.771,0,0,1,.328-.122,2.152,2.152,0,0,1,.262-.021h3.249Z" transform="translate(-24.548 -5.538)" fill="#fff"/>
    <path id="패스_34" data-name="패스 34" d="M236.524,49.362a.945.945,0,0,0-1,1.007V51.3h18.44a.946.946,0,0,0,1-1.008v-.93Z" transform="translate(-33.488 -7.019)" fill="#fff"/>
    <path id="패스_35" data-name="패스 35" d="M247.093,32.518v1.917c0,1.162-.021,5.521,7.219,7.826l-.79.947a1.439,1.439,0,0,1-1.518.42,12.547,12.547,0,0,1-6.537-4.666,12.564,12.564,0,0,1-6.542,4.666,1.441,1.441,0,0,1-1.517-.42l-.788-.947c6.826-2.17,7.182-6.169,7.21-7.59v-.208c0-1.252.614-1.945,1.732-1.945Z" transform="translate(-33.644 -4.624)" fill="#fff"/>
    <path id="패스_36" data-name="패스 36" d="M189.923,49.362a.945.945,0,0,0-1,1.007V51.3h18.44a.946.946,0,0,0,1-1.008v-.93Z" transform="translate(-26.862 -7.019)" fill="#fff"/>
  </g>
</svg>
