<svg id="그룹_219" data-name="그룹 219" xmlns="http://www.w3.org/2000/svg" xmlns:xlink="http://www.w3.org/1999/xlink" width="60" height="60" viewBox="0 0 60 60">
  <defs>
    <clipPath id="clip-path">
      <rect id="사각형_181" data-name="사각형 181" width="60" height="60" fill="none"/>
    </clipPath>
  </defs>
  <g id="그룹_218" data-name="그룹 218" clip-path="url(#clip-path)">
    <path id="패스_105" data-name="패스 105" d="M45.241,35.107H8.165V33.923a2.267,2.267,0,0,1,2.266-2.266H47.508v1.184a2.268,2.268,0,0,1-2.266,2.266" transform="translate(2.041 7.914)" fill="#ff2929"/>
    <path id="패스_106" data-name="패스 106" d="M42.325,38.973H41.142V16.148h3.449V36.707a2.267,2.267,0,0,1-2.266,2.266" transform="translate(10.285 4.037)" fill="#006fcc"/>
    <path id="패스_107" data-name="패스 107" d="M46.507,15.414H43.059V8.735H33.476V5.287H46.507Z" transform="translate(8.369 1.322)" fill="#ff2929"/>
    <path id="패스_108" data-name="패스 108" d="M37.379,8.735H8.675V7.552a2.267,2.267,0,0,1,2.266-2.266H37.379Z" transform="translate(2.169 1.321)" fill="#fc9900"/>
    <path id="패스_109" data-name="패스 109" d="M7.548,41.85H4.1V7.545A2.267,2.267,0,0,1,6.365,5.277H7.548Z" transform="translate(1.025 1.319)" fill="#006fcc"/>
    <path id="패스_110" data-name="패스 110" d="M37.988,44.391H25.333a2.266,2.266,0,0,1-2.266-2.265v-6.08h3.449v4.9H37.988Z" transform="translate(5.767 9.012)" fill="#fc9900"/>
    <path id="패스_111" data-name="패스 111" d="M22.542,43.411h-11.1V39.964h8.839a2.266,2.266,0,0,1,2.266,2.265Z" transform="translate(2.859 9.991)" fill="#006fcc"/>
    <path id="패스_112" data-name="패스 112" d="M36.418,21.495A10.375,10.375,0,0,0,26.1,11.14h0a.231.231,0,0,0-.029.005.27.27,0,0,0-.031-.005h0a10.355,10.355,0,0,0,0,20.71h0l.01,0,.015,0c.034,0,.077,0,.116-.005l.011,0A10.372,10.372,0,0,0,36.418,21.495m-2.9-1.38h-1.97c-.009-.13-.007-.273-.019-.4-.019-.212-.057-.4-.084-.611-.044-.345-.08-.7-.144-1.024-.045-.237-.115-.452-.171-.68-.068-.271-.124-.553-.206-.81-.075-.231-.173-.44-.257-.66s-.16-.45-.258-.657a7.617,7.617,0,0,1,3.109,4.842m-4.864,3.976c-.025.154-.059.3-.089.442-.046.229-.094.456-.153.67-.04.146-.086.284-.132.424-.064.2-.131.389-.206.571-.055.132-.115.261-.176.386q-.124.257-.265.494c-.07.118-.141.232-.218.343-.1.15-.214.29-.327.427-.084.1-.166.2-.257.295a5.032,5.032,0,0,1-.4.368c-.1.084-.187.17-.29.246-.024.017-.051.033-.075.05-.025-.019-.054-.033-.079-.051-.1-.075-.189-.159-.282-.24-.14-.12-.278-.241-.4-.374-.089-.093-.17-.193-.253-.291-.115-.138-.227-.28-.331-.431-.075-.109-.146-.224-.215-.34q-.143-.238-.266-.5c-.061-.125-.12-.253-.175-.384-.076-.184-.144-.376-.208-.574-.046-.139-.092-.276-.132-.423-.059-.214-.106-.441-.153-.67-.03-.147-.062-.289-.087-.442-.043-.264-.072-.544-.1-.826-.014-.131-.032-.255-.043-.39H28.8c-.01.135-.029.259-.041.39-.029.283-.057.563-.1.826M23.483,18.9c.025-.154.058-.3.087-.443.046-.229.094-.456.153-.67.04-.146.086-.284.132-.423.064-.2.131-.391.208-.574.055-.133.114-.259.174-.384q.126-.259.268-.5c.069-.115.14-.229.215-.338a5.448,5.448,0,0,1,.333-.434c.083-.1.163-.2.251-.289a5.5,5.5,0,0,1,.406-.376c.093-.08.182-.164.281-.239.025-.017.054-.032.079-.051.024.017.051.033.075.05.1.076.194.162.29.245.138.119.274.237.4.369.09.094.171.195.255.295.115.138.226.279.33.428.075.11.146.225.216.342q.141.238.265.494c.061.126.121.254.176.386.075.184.143.376.206.572.046.139.092.278.132.424.059.214.106.441.153.67.03.148.064.289.089.443.042.264.071.544.1.826.013.131.031.255.041.39H23.34c.01-.135.029-.259.043-.39.028-.282.057-.562.1-.826m-1.75-3.639c-.1.214-.177.453-.266.677s-.18.419-.253.645c-.088.275-.15.575-.221.866-.051.21-.115.406-.158.625-.067.344-.106.713-.151,1.077-.022.189-.06.365-.077.56-.011.13-.009.272-.017.4H18.608a7.6,7.6,0,0,1,3.125-4.855m-3.125,7.615h1.981c.009.131.006.274.017.4.017.191.054.364.076.549.045.369.085.743.152,1.089.04.21.1.4.151.6.073.3.138.608.228.89.069.214.16.4.239.607.092.239.172.49.28.715a7.608,7.608,0,0,1-3.125-4.855m11.8,4.841c.111-.235.195-.5.291-.745.072-.191.157-.37.221-.57.088-.274.15-.571.221-.861.051-.211.115-.41.157-.629.066-.339.1-.7.149-1.062.024-.194.061-.374.079-.572.011-.129.01-.27.019-.4h1.97a7.614,7.614,0,0,1-3.107,4.841" transform="translate(3.927 2.785)" fill="#fc9900"/>
  </g>
</svg>
