<svg id="그룹_18" data-name="그룹 18" xmlns="http://www.w3.org/2000/svg" xmlns:xlink="http://www.w3.org/1999/xlink" width="175.542" height="51.674" viewBox="0 0 175.542 51.674">
  <defs>
    <clipPath id="clip-path">
      <rect id="사각형_21" data-name="사각형 21" width="175.542" height="51.674" fill="none"/>
    </clipPath>
  </defs>
  <g id="그룹_17" data-name="그룹 17" clip-path="url(#clip-path)">
    <path id="패스_37" data-name="패스 37" d="M72.821,25.108c-6.261-2.467-12.585-2.2-14.189.685-1.619,2.913.738,9.809,5.189,15.535s10.741,5.536,14.212-.715c3.415-6.232,1.031-13.046-5.212-15.506" transform="translate(-18.603 -7.498)" fill="#ff9700"/>
    <path id="패스_38" data-name="패스 38" d="M30.69,19.605c5.555,3.794,11.778,4.941,13.982,2.48,2.224-2.48,1.456-9.726-1.611-16.294S33.82-1.987,29.05,3.335c-4.711,5.317-3.9,12.487,1.641,16.27" transform="translate(-8.313 0)" fill="#006ecd"/>
    <path id="패스_39" data-name="패스 39" d="M52.979,52.528c-.89-6.671-4.2-12.068-7.5-12.063-3.333,0-8.211,5.417-11.049,12.092s.389,12.077,7.538,12.069c7.106-.048,11.9-5.445,11.012-12.1" transform="translate(-10.692 -12.952)" fill="#ef151e"/>
    <path id="패스_40" data-name="패스 40" d="M23.573,32.7a1.724,1.724,0,0,0-1.895,1.738v1.046H24.37s.09,8.88-.012,9.811a3.656,3.656,0,0,1-2,3.238c-1.436.685-1.465,1.333-1.557,1.909-.118.748.021.843.566.709,2.138-.524,4.415-1.382,5.566-3.5a8.414,8.414,0,0,0,.875-4.277V35.487a1.81,1.81,0,0,0,1.962-1.738V32.7Z" transform="translate(-6.645 -10.468)"/>
    <path id="패스_41" data-name="패스 41" d="M13.937,44.468a8.078,8.078,0,0,1-6.352,3.1A7.477,7.477,0,0,1,0,39.86a7.529,7.529,0,0,1,7.585-7.807,8.086,8.086,0,0,1,6.3,3.095,3.946,3.946,0,0,1-2.259,1.234,2.628,2.628,0,0,1-1.41-.537,4.464,4.464,0,0,0-2.627-.823,4.666,4.666,0,0,0-4.46,4.838,4.626,4.626,0,0,0,7.211,3.95,2.593,2.593,0,0,1,1.425-.511,3.2,3.2,0,0,1,2.176,1.169" transform="translate(0 -10.26)"/>
    <path id="패스_42" data-name="패스 42" d="M173.8,36.678V33.587a1.651,1.651,0,0,1,.356-1.133,1.3,1.3,0,0,1,1.036-.4h.987V46.018a1.63,1.63,0,0,1-.364,1.142,1.306,1.306,0,0,1-1.011.4h-1V42.928a20.391,20.391,0,0,1-2.284.3q-1.31.1-3.125.1h-2.653v-9.1a1.713,1.713,0,0,1,.339-1.131,1.257,1.257,0,0,1,1.021-.4h.987v9.1h2.1c.453,0,1-.027,1.643-.08s1.3-.129,1.967-.228V36.678Zm5.909,9.34a1.687,1.687,0,0,1-.349,1.142,1.253,1.253,0,0,1-1,.4h-1.036V33.587a1.627,1.627,0,0,1,.364-1.133,1.309,1.309,0,0,1,1.028-.4h.989Z" transform="translate(-53.051 -10.258)"/>
    <path id="패스_43" data-name="패스 43" d="M193.771,40.919h9.483v.763a.773.773,0,0,1-.117.447.924.924,0,0,1-.249.248.662.662,0,0,1-.283.116,1.491,1.491,0,0,1-.183.018h-11.1V34.769a1.733,1.733,0,0,1,.6-1.327,2.063,2.063,0,0,1,1.441-.547h9.88v.746a.849.849,0,0,1-.108.464.752.752,0,0,1-.256.25.664.664,0,0,1-.267.1,1.329,1.329,0,0,1-.183.017h-8.652v2.453h9.35v.762a.815.815,0,0,1-.107.456.758.758,0,0,1-.26.241.664.664,0,0,1-.263.1,1.722,1.722,0,0,1-.182.017h-8.539Z" transform="translate(-61.238 -10.529)"/>
    <path id="패스_44" data-name="패스 44" d="M226.044,40.571a1.627,1.627,0,0,1-.364,1.141,1.306,1.306,0,0,1-1.011.4h-1v-.5h-3.3v-.746a.816.816,0,0,1,.1-.42.574.574,0,0,1,.227-.228.981.981,0,0,1,.274-.1,1.238,1.238,0,0,1,.2-.024h2.509v-.842a23.158,23.158,0,0,1-2.4.4q-1.319.153-2.679.2v.713a1.655,1.655,0,0,1-.356,1.14,1.259,1.259,0,0,1-.989.4H216.2V39.858h-4.628v-.712a.808.808,0,0,1,.1-.422.667.667,0,0,1,.228-.241.62.62,0,0,1,.258-.123,1.188,1.188,0,0,1,.211-.025h5.018q1.441,0,3.134-.112c1.125-.077,2.176-.194,3.147-.357v-4.5a1.7,1.7,0,0,1,.339-1.133,1.261,1.261,0,0,1,1.021-.405h1.018Zm-3.916-5.877a2.541,2.541,0,0,1-.366,1.327,3.6,3.6,0,0,1-.978,1.068,4.792,4.792,0,0,1-1.467.728,6.233,6.233,0,0,1-3.552,0,4.836,4.836,0,0,1-1.458-.728,3.512,3.512,0,0,1-.972-1.068,2.6,2.6,0,0,1-.355-1.327,2.575,2.575,0,0,1,.355-1.311,3.524,3.524,0,0,1,.972-1.07,5,5,0,0,1,1.458-.735,6.021,6.021,0,0,1,3.552,0,4.946,4.946,0,0,1,1.467.735,3.611,3.611,0,0,1,.978,1.07,2.514,2.514,0,0,1,.366,1.311m3.9,11.088a1.628,1.628,0,0,1-.364,1.142,1.306,1.306,0,0,1-1.011.4h-1V44.051h-9.583v-.729a.843.843,0,0,1,.1-.437.691.691,0,0,1,.225-.243.906.906,0,0,1,.277-.105,1.21,1.21,0,0,1,.194-.024h11.169Zm-6.265-11.088a1.712,1.712,0,0,0-.648-1.335,2.319,2.319,0,0,0-1.57-.559,2.406,2.406,0,0,0-.858.154,2.2,2.2,0,0,0-.7.413,1.842,1.842,0,0,0-.477.6,1.6,1.6,0,0,0-.171.728,1.687,1.687,0,0,0,.171.753,1.82,1.82,0,0,0,.477.606,2.1,2.1,0,0,0,.7.4,2.5,2.5,0,0,0,.858.146,2.324,2.324,0,0,0,1.57-.558,1.73,1.73,0,0,0,.648-1.352" transform="translate(-67.721 -10.022)"/>
    <path id="패스_45" data-name="패스 45" d="M104.13,38.045c2.106-.4,3.67-1.884,3.67-3.655,0-2.08-2.149-3.765-4.8-3.765s-4.807,1.686-4.807,3.765c0,1.771,1.562,3.255,3.672,3.655v.605H96.2a.749.749,0,0,0-.794.8v.737h14.4a.751.751,0,0,0,.791-.8V38.65h-6.46Zm-3.563-3.656A2.429,2.429,0,1,1,103,36.727a2.386,2.386,0,0,1-2.428-2.338" transform="translate(-30.536 -9.803)"/>
    <path id="패스_46" data-name="패스 46" d="M141.826,50.52v.736h14.619a.749.749,0,0,0,.795-.8v-.736H142.622a.748.748,0,0,0-.8.8" transform="translate(-45.396 -15.915)"/>
    <path id="패스_47" data-name="패스 47" d="M156.215,40.037V32.846H155.2c-.883,0-1.367.549-1.367,1.54v1.348h-6.792V32.846h-1.01c-.883,0-1.373.549-1.373,1.54v7.463h9.558a1.909,1.909,0,0,0,1.994-1.812m-2.377.274h-6.794V37.273h6.794Z" transform="translate(-46.304 -10.513)"/>
    <path id="패스_48" data-name="패스 48" d="M100.4,49.682l7.523,0a1.5,1.5,0,0,0,1.573-1.4V45.843H98.817a.749.749,0,0,0-.793.8v.737h9.094v.764l-7.72,0c-.887,0-1.374.547-1.374,1.539v2.3h10.834a.746.746,0,0,0,.792-.8v-.734H100.4Z" transform="translate(-31.376 -14.674)"/>
    <path id="패스_49" data-name="패스 49" d="M130.849,33.639V41.5a23.169,23.169,0,0,1-5.235.657h-2.871l0-3.429h4.29c.886,0,1.369-.547,1.369-1.538V32.677h-7.237a.75.75,0,0,0-.795.8v.738h5.658v2.979l-4.29,0c-.887,0-1.373.546-1.368,1.538V43.7H123.8a21.179,21.179,0,0,0,7.048-.918l0,4.812h1.014c.883,0,1.369-.547,1.369-1.539l0-13.953H132.22c-.884,0-1.371.547-1.371,1.539" transform="translate(-38.527 -10.275)"/>
    <path id="패스_50" data-name="패스 50" d="M176.014,40.45h-3.368v-.712a.858.858,0,0,1,.1-.447.724.724,0,0,1,.228-.234.611.611,0,0,1,.26-.1,1.707,1.707,0,0,1,.208-.016h2.576Z" transform="translate(-55.261 -12.466)"/>
    <path id="패스_51" data-name="패스 51" d="M236.315,49.362a.749.749,0,0,0-.8.8V50.9h14.616a.75.75,0,0,0,.793-.8v-.737Z" transform="translate(-75.386 -15.8)"/>
    <path id="패스_52" data-name="패스 52" d="M244.921,32.518v1.52c0,.921-.017,4.376,5.721,6.2l-.626.751a1.14,1.14,0,0,1-1.2.333,9.945,9.945,0,0,1-5.182-3.7,9.959,9.959,0,0,1-5.185,3.7,1.142,1.142,0,0,1-1.2-.333l-.625-.751c5.41-1.72,5.693-4.89,5.715-6.016v-.165c0-.992.487-1.541,1.373-1.541Z" transform="translate(-75.738 -10.408)"/>
    <path id="패스_53" data-name="패스 53" d="M189.714,49.362a.749.749,0,0,0-.8.8V50.9h14.616a.75.75,0,0,0,.793-.8v-.737Z" transform="translate(-60.469 -15.8)"/>
  </g>
</svg>
